<?xml version="1.0" encoding="UTF-8"?>
<svg id="Layer_2" data-name="Layer 2" xmlns="http://www.w3.org/2000/svg" viewBox="0 0 1630.85 1630.74">
  <defs>
    <style>
      .cls-1, .cls-2, .cls-3 {
        stroke-width: 0px;
      }

      .cls-2 {
        fill: #00e7ff;
      }

      .cls-3 {
        fill: #5a70f2;
      }
    </style>
  </defs>
  <g id="Objects">
    <g>
      <path class="cls-2" d="m1584.65,748.82c36.76,36.76,36.76,96.36,0,133.12l-278.87,278.87c-7.5,7.5-19.65,7.5-27.15,0-1.91-1.91-3.39-4.17-4.34-6.63-.93-2.46-1.36-5.1-1.27-7.81,1.46-35-10.91-70.51-37.16-97.57-50.67-52.2-134.99-53.51-187.13-2.79-52.98,51.5-53.42,136.24-1.33,188.35,27.23,27.21,63.36,40.09,99.06,38.6,5.36-.21,10.61,1.8,14.4,5.59,3.75,3.75,5.63,8.68,5.61,13.59,0,4.89-1.86,9.83-5.61,13.59l-278.87,278.87c-36.76,36.76-96.36,36.76-133.12,0l-280.93-280.93c-4.01-4.01-9.83-5.87-15.35-4.5-7.61,1.89-12.4,8.86-12.06,16.08,1.95,36.15-10.9,72.93-38.52,100.56-52.07,52.07-136.79,51.62-188.33-1.38-50.71-52.17-49.44-136.45,2.8-187.1,27.42-26.6,63.53-38.96,99.02-37.1,4.47.23,8.75-1.5,11.9-4.64,3.09-3.09,4.68-7.14,4.68-11.22.02-4.04-1.55-8.11-4.64-11.2L46.2,881.92c-36.76-36.76-36.76-96.36,0-133.12l281.25-281.25c6.18-6.18,6.18-16.22,0-22.4l-.04-.02c-3.13-3.13-7.45-4.85-11.92-4.62-35.49,1.88-71.59-10.46-99.01-37.1-52.26-50.63-53.55-134.93-2.82-187.1,51.54-53,136.28-53.43,188.35-1.35,27.63,27.61,40.47,64.39,38.54,100.52-.25,4.43,1.48,8.77,4.6,11.9l.02.02c6.18,6.18,16.24,6.16,22.42-.02L748.85,46.14c36.76-36.76,96.36-36.76,133.12,0l281.24,281.24c6.22,6.2,16.22,6.18,22.42-.02,3.16-3.15,4.87-7.45,4.64-11.9-1.86-35.49,10.5-71.61,37.1-99.04,50.65-52.22,134.95-53.51,187.12-2.79,52.98,51.54,53.43,136.24,1.35,188.35-27.61,27.59-64.39,40.45-100.56,38.52-4.41-.23-8.75,1.5-11.88,4.62-3.09,3.09-4.64,7.18-4.66,11.22,0,4.05,1.55,8.11,4.66,11.22l281.26,281.26Z"/>
      <path class="cls-2" d="m1584.64,881.94l-278.86,278.88c-7.5,7.5-19.65,7.5-27.15,0-1.92-1.91-3.4-4.17-4.35-6.63-.93-2.47-1.37-5.1-1.27-7.81,1.45-35-10.92-70.5-37.16-97.56-50.67-52.21-134.99-53.51-187.14-2.78-52.98,51.5-53.41,136.23-1.33,188.34,27.23,27.21,63.37,40.09,99.06,38.6,5.36-.21,10.62,1.8,14.41,5.59,3.75,3.75,5.63,8.68,5.6,13.59,0,4.89-1.85,9.84-5.6,13.59l-278.88,278.86c-36.76,36.76-96.36,36.76-133.12,0l-280.93-280.93c-4.02-4.01-9.84-5.87-15.35-4.51-7.61,1.9-12.39,8.87-12.06,16.08,1.95,36.15-10.89,72.94-38.52,100.56-52.07,52.07-136.78,51.61-188.33-1.38-50.71-52.17-49.43-136.45,2.81-187.1,1.95-1.89,3.94-3.71,5.97-5.45,179.61,25.56,366.72-6.59,528.31-93.27,201.92-108.32,361.8-300.61,437.01-525.61,41.99-125.58,57.34-260.6,46.55-393.22,51.14-45.58,130.32-44.6,180.16,3.86,52.98,51.55,53.44,136.25,1.35,188.36-27.61,27.58-64.39,40.45-100.57,38.52-4.41-.24-8.76,1.49-11.87,4.62-3.09,3.09-4.64,7.18-4.67,11.21,0,4.06,1.55,8.11,4.67,11.21l281.25,281.26c36.76,36.76,36.76,96.36,0,133.12Z"/>
      <path class="cls-3" d="m958.96,329.27c-107.58,4.01-214.54,25.64-315.28,63.62-34.54,13.03-62.76-29.76-37.09-56.29,62.72-64.83,125.44-129.65,188.16-194.48,13.09-13.53,34.6-14.08,48.37-1.25l138,128.62c22.45,20.92,8.51,58.63-22.15,59.77Z"/>
      <circle class="cls-3" cx="546.14" cy="439.35" r="31.18"/>
      <path class="cls-1" d="m815.43,1630.74c-28.88,0-57.75-10.99-79.73-32.97l-276.34-276.35c.24,40.16-15.63,79.01-44.17,107.55-28.51,28.51-66.33,44.17-106.61,44.17-.36,0-.72,0-1.09,0-40.7-.28-78.75-16.53-107.16-45.73-27.99-28.79-43.07-66.92-42.47-107.35.6-40.45,16.82-78.13,45.67-106.1,28.1-27.27,66.05-42.53,105.13-42.53.23,0,.47,0,.7,0L33.03,895.1C11.73,873.8,0,845.48,0,815.36c0-30.12,11.73-58.44,33.03-79.73l276.31-276.31c-39.3.18-77.56-15.08-105.83-42.55-28.84-27.94-45.07-65.63-45.68-106.09-.6-40.44,14.48-78.57,42.48-107.36,28.4-29.2,66.45-45.44,107.15-45.72,40.71-.32,78.96,15.41,107.72,44.19,28.52,28.5,44.4,67.32,44.18,107.47L735.68,32.97c43.96-43.96,115.5-43.96,159.46,0l276.32,276.32c-.18-39.31,15.1-77.54,42.53-105.84,27.98-28.85,65.68-45.06,106.14-45.66,40.43-.63,78.55,14.5,107.34,42.48,29.2,28.4,45.43,66.45,45.71,107.13.28,40.69-15.41,78.95-44.18,107.74-28.34,28.32-66.85,44.17-106.7,44.17-.27,0-.54,0-.81,0l276.33,276.33c21.3,21.3,33.03,49.61,33.03,79.73s-11.73,58.44-33.03,79.73l-278.87,278.87c-14.75,14.75-38.75,14.75-53.5,0-3.78-3.78-6.66-8.2-8.55-13.12-1.85-4.91-2.68-9.97-2.5-15.14,0-.04,0-.08,0-.13,1.31-31.48-10.02-61.25-31.92-83.82-21.06-21.7-49.48-33.9-80-34.33-30.45-.46-59.15,10.9-80.77,31.93-21.98,21.37-34.21,50-34.42,80.63-.22,30.67,11.6,59.5,33.28,81.19,22.41,22.4,53.43,34.5,85.11,33.15,10.62-.41,20.93,3.61,28.35,11.03,7.18,7.18,11.1,16.71,11.06,26.83,0,10.05-3.93,19.55-11.06,26.68l-278.87,278.87c-21.98,21.98-50.86,32.97-79.73,32.97Zm-359.24-350.64c9.15,0,18.21,3.68,24.92,10.39l280.93,280.93c29.44,29.44,77.34,29.44,106.78,0l278.87-278.87c.12-.13.15-.29.15-.41,0-.26-.1-.37-.15-.42-.06-.06-.23-.15-.5-.15-41.99,1.78-83.19-14.29-112.95-44.03-28.8-28.81-44.49-67.09-44.2-107.81.29-40.68,16.52-78.71,45.71-107.07,28.75-27.97,66.83-43.07,107.28-42.48,40.48.58,78.2,16.79,106.21,45.64,28.64,29.53,44.09,70.06,42.41,111.21,0,.21.02.36.05.46.02.03.05.07.12.14.23.23.58.23.81,0l278.87-278.87c14.26-14.26,22.11-33.22,22.11-53.39s-7.85-39.13-22.11-53.39l-281.26-281.26c-6.52-6.52-10.12-15.19-10.12-24.39.04-9.28,3.64-17.91,10.12-24.39,6.88-6.88,16.37-10.55,26.01-10.05,32.16,1.72,63.66-10.34,86.43-33.1,21.67-21.67,33.48-50.49,33.27-81.13-.21-30.64-12.44-59.29-34.43-80.69-21.64-21.04-50.37-32.37-80.82-31.94-30.5.45-58.89,12.64-79.94,34.34-21.9,22.59-33.52,53.61-31.87,85.1.5,9.7-3.19,19.2-10.11,26.08-13.39,13.39-35.25,13.41-48.7,0L868.8,59.32c-29.44-29.44-77.34-29.44-106.78,0l-281.26,281.24c-6.5,6.5-15.15,10.09-24.36,10.1h-.04c-9.17,0-17.79-3.55-24.28-10-.04-.03-.07-.07-.1-.1-6.91-6.91-10.57-16.43-10.03-26.1,1.72-32.1-10.35-63.57-33.11-86.31-21.67-21.68-50.5-33.47-81.13-33.28-30.65.21-59.31,12.44-80.7,34.44-21.05,21.65-32.39,50.35-31.94,80.83.45,30.5,12.66,58.87,34.37,79.9,22.57,21.93,53.56,33.53,85.06,31.88,9.39-.48,18.59,2.94,25.42,9.41.24.21.47.43.69.66,6.51,6.51,10.09,15.16,10.09,24.37s-3.58,17.86-10.09,24.37L59.37,761.97c-14.26,14.26-22.11,33.22-22.11,53.39,0,20.17,7.85,39.13,22.12,53.39l281.25,281.24c6.46,6.46,10.14,15.38,10.1,24.46,0,9.11-3.6,17.77-10.14,24.3-6.89,6.89-16.37,10.56-26.02,10.07-31.52-1.64-62.53,9.97-85.1,31.87-21.7,21.04-33.9,49.42-34.35,79.91-.45,30.47,10.89,59.18,31.93,80.83,21.39,22,50.06,34.24,80.7,34.45,30.64.21,59.44-11.6,81.09-33.25,22.77-22.77,34.83-54.25,33.09-86.38,0-.04,0-.09,0-.13-.77-16.34,10.24-31.07,26.17-35.03,2.66-.66,5.38-.98,8.08-.98Zm2.97-963.64s0,0,0,.01c0,0,0,0,0-.01Z"/>
    </g>
  </g>
</svg>